<svg xmlns="http://www.w3.org/2000/svg" xmlns:xlink="http://www.w3.org/1999/xlink" viewBox="0 0 6846.45 1081.24"><defs><style>.cls-1{fill:none;}.cls-2{fill:#4c093c;}.cls-3{clip-path:url(#clip-path);}.cls-4{fill:#510042;}.cls-5{fill:#965690;}.cls-6{fill:#470035;}.cls-7{fill:#4c003c;}.cls-8{fill:#56004a;}.cls-9{fill:#916a3f;}.cls-10{fill:#d8aa59;}.cls-11{clip-path:url(#clip-path-2);}.cls-12{fill:#cc9d58;}.cls-13{fill:#d3a559;}.cls-14{fill:#4f3209;}</style><clipPath id="clip-path"><path class="cls-1" d="M521.27,892.67S885,950,835,515c-20.29-176.36-190.4-284-399.54-265.32-108.61,9.73-316.82,96.76-298.09,357.4S405.78,945.74,521.27,892.67Z"/></clipPath><clipPath id="clip-path-2"><path class="cls-1" d="M4850.57,205.83c4.64,6.42,37.34-2.26,47.53,0s45.26-6.79,61.11-2.26,18.11,7.92,21.5,7.92,23.77,7.92,31.69,18.11c0,0,19.24,9.05,23.76,9.05s36.21,11.32,43,14.71,82.61,84.87,98.45,135.8c0,0,21.5,32.82,26,53.19s3.39,67.9,4.53,73.56,4.53,23.76,4.53,30.55-3.39,17-3.39,22.63,13.58,87.14-6.79,125.61c0,0-12.45,40.74-28.29,58.85,0,0-28.29,53.19-81.48,84.87-13.82,8.23-48.66,79.22-168.61,69,0,0-107.51,45.26-234.25-60,0,0-36.21-12.45-62.24-44.13s-39.61-50.92-43-61.11c0,0-47.53-35.08-66.77-72.42s-63.37-189,13.58-261.41c0,0,11.31-50.92,39.61-62.24,0,0-7.92-36.21,28.29-74.69s73.56-60,105.24-67.9S4835.85,185.46,4850.57,205.83Z"/></clipPath></defs><title>logo</title><g id="Layer_2" data-name="Layer 2"><g id="Layer_1-2" data-name="Layer 1"><path class="cls-2" d="M6246.63,311.9q-46.17-47.94-120.34-59l.06,0-.8-.08a313.73,313.73,0,0,0-40.12-3.17c-101.79-5.52-208.49,10.83-260.19,124.41q-21.12-50.27-63.21-81.78-48.27-36.07-117.56-41.66c-171.61-24.54-239.47,62.29-260.76,100.93v-99.7h-77.4V857.14h77.4v-298q0-106.27,55.45-171t152.48-67q82,0,128.8,47.94t46.79,134.58V857.14h78.55v-298q0-106.27,54.87-171t151.91-67q82,0,128.8,47.94t46.78,134.58V857.14h78.55v-372Q6306.7,374.28,6246.63,311.9Z"/><path class="cls-2" d="M583.73,288.22q66.42,38.72,103.39,108.59t37,158.83q0,87.8-37,157.1t-102.81,108q-65.85,38.72-150.17,38.7-83.17,0-145.55-37.54t-97-104.54v363.88h-77.4V251.83h77.4V391.6Q225,324.62,288,287.06t145-37.54Q517.29,249.52,583.73,288.22ZM535.79,761.84q52-30.59,80.86-84.9t28.88-123.6q0-68.15-28.88-122.45T535.79,346q-52-30.59-116.67-30.61-65.85,0-117.25,30.61T221,430.88q-29.46,54.31-29.46,122.45,0,69.31,28.88,123.6t80.86,84.9q52,30.62,117.83,30.61Q483.8,792.45,535.79,761.84Z"/><path class="cls-2" d="M893.88,0h77.4V857.14h-77.4Z"/><path class="cls-2" d="M1546.84,560.37V251.83h78.55M1356.54,871.11c-71.62,0-170.69-21-211.12-63s-60.65-99.53-60.65-172.7V251.83h78.55V617q0,85.5,46.78,133.42c31.19,32,90.28,47.94,145,47.94"/><path class="cls-2" d="M1355.08,798.34c54.69,0,113.78-16,145-47.94S1546.84,674,1546.84,617V251.83h78.55V635.46q0,109.76-60.65,172.7c-40.43,42-136.59,63-208.21,63M1084.77,251.83h78.55V560.37"/><path class="cls-2" d="M2959.65,111.19q16.88,16.92,16.89,43.92a89,89,0,0,1-16.2,50.89l-71.6,90.49h-23.35l25.42-87.9a50.92,50.92,0,0,1-25-21.62,60.08,60.08,0,0,1-8.78-31.09q0-25.65,16.89-43.24t42.57-17.57C2932.69,95.06,2948.38,99.93,2959.65,111.19Z"/><path class="cls-2" d="M3307.7,327a301.38,301.38,0,0,0-84.33-12.41q-57.78,0-93,23t-35.23,69.14q0,31.91,19.06,52t47.36,32.5q28.29,12.41,79.13,27.78,62.38,18.92,101.66,37.23a184.51,184.51,0,0,1,67,53.19q27.73,34.88,27.73,91.6,0,83.93-62.38,128.24t-155.95,44.32a366,366,0,0,1-127.07-22.45q-61.24-22.44-102.81-63.83l31.19-56.73q39.26,36.65,93,57.92t109.16,21.27q61.21,0,99.92-26t38.7-75.64q0-34.27-19.64-56.14t-49.09-34.28q-29.46-12.41-81.44-29-61.24-18.89-99.34-36.64a175.91,175.91,0,0,1-64.69-51.41Q3020,467,3020.07,412.65q0-81.56,59.49-122.92T3228,248.36a356.37,356.37,0,0,1,100.5,14.18q48.52,14.18,86.64,39l-30,60.28A290.73,290.73,0,0,0,3307.7,327Z"/><path class="cls-2" d="M4352.42,312.48q61.79,63,61.8,172.7v372h-78.55V503.66q0-85.47-47.36-134t-131.69-48.52q-93.57,1.17-149.6,57.76t-64.11,152.48V857.14h-77.4V251.83h77.4V392.76q31.19-70.45,91.84-106.28t147.29-37Q4290.6,249.52,4352.42,312.48Z"/><path class="cls-2" d="M5017.77,288.22q69.31,38.72,108.59,108t39.28,157.1q0,89-39.28,158.83T5017.77,820.75q-69.31,38.72-157.1,38.7t-157.1-38.7Q4634.25,782.06,4595,712.16T4555.7,553.33q0-87.78,39.28-157.1t108.59-108q69.31-38.69,157.1-38.7T5017.77,288.22Zm-274.93,58.34q-52,30.05-80.86,84.33t-28.88,123.6q0,70.47,28.88,124.76t80.86,84.33q52,30.05,117.83,30t117.83-30q52-30,80.86-84.33t28.88-124.76q0-69.31-28.88-123.6t-80.86-84.33q-52-30-117.83-30T4742.84,346.55Z"/><path class="cls-2" d="M6717.07,327a301.38,301.38,0,0,0-84.33-12.41q-57.77,0-93,23t-35.23,69.14q0,31.91,19.06,52t47.36,32.5q28.29,12.41,79.13,27.78,62.38,18.92,101.66,37.23a184.52,184.52,0,0,1,67,53.19q27.73,34.88,27.72,91.6,0,83.93-62.38,128.24t-155.95,44.32a366,366,0,0,1-127.07-22.45q-61.24-22.44-102.81-63.83l31.19-56.73q39.26,36.65,93,57.92t109.16,21.27q61.21,0,99.92-26t38.7-75.64q0-34.27-19.64-56.14t-49.09-34.28q-29.46-12.41-81.44-29-61.24-18.89-99.35-36.64A175.93,175.93,0,0,1,6456,500.71q-26.59-33.69-26.57-88.06,0-81.56,59.49-122.92t148.44-41.37a356.35,356.35,0,0,1,100.5,14.18q48.52,14.18,86.64,39l-30,60.28A290.69,290.69,0,0,0,6717.07,327Z"/><g class="cls-3"><path class="cls-4" d="M521.27,892.67S885,950,835,515c-20.29-176.36-190.4-284-399.54-265.32-108.61,9.73-316.82,96.76-298.09,357.4S405.78,945.74,521.27,892.67Z"/><path class="cls-5" d="M621.16,351.11s-15.61,26.53-7.8,60.87,43.7,84.28,70.23,84.28,60.87-48.38,29.65-82.72S655.49,380.77,621.16,351.11Z"/><path class="cls-6" d="M494.74,383.89s-7.8-43.7,1.56-65.55c0,0-21.85-12.49-60.87,15.61C435.43,333.95,476,362,494.74,383.89Z"/><path class="cls-7" d="M538.44,746s-3.12-273.12-43.7-362.08c0,0-65.55-89-165.43-84.28,0,0-156.07,29.65-165.43,195.09S388.61,903.6,538.44,746Z"/><path class="cls-8" d="M360.52,301.17S232.54,558.69,526,529c0,0-7.8-103-37.46-146.7s6.24,1.56,6.24,1.56S419.83,302.73,360.52,301.17Z"/><path class="cls-7" d="M526,529s290.29,34.34,185.72-213.81l198.21,18.73,32.77,188.84-51.5,117.05L849,716.31,589.94,792.79,538.44,746S533.76,577.41,526,529Z"/><path class="cls-7" d="M511.91,254.35s46.82,26.53,28.09,53.06-45.26,85.84,10.92,95.2,45.26-53.06,64-65.55,118.61,0,120.17,57.75,26.53-148.27,26.53-148.27l-165.43-25Z"/><path class="cls-6" d="M526,251.23S235.66,270,176.36,455.68,410.46,845.85,538.44,746c0,0,199.77,103,301.21-181l79.6,206-218.5,190.4L265.32,989.44,0,755.33,128,427.59,268.44,232.5l299.65,1.56Z"/></g><path class="cls-9" d="M475.9,345.46s7.8-3.12,7.8-14c0,0-34.34-79.6-53.06-145.14,0,0,25-32.77,14-40.58s-37.46-6.24-37.46,23.41,39,124.86,42.14,165.43C449.37,334.53,469.66,351.7,475.9,345.46Z"/><path class="cls-10" d="M4850.57,205.83c4.64,6.42,37.34-2.26,47.53,0s45.26-6.79,61.11-2.26,18.11,7.92,21.5,7.92,23.77,7.92,31.69,18.11c0,0,19.24,9.05,23.76,9.05s36.21,11.32,43,14.71,82.61,84.87,98.45,135.8c0,0,21.5,32.82,26,53.19s3.39,67.9,4.53,73.56,4.53,23.76,4.53,30.55-3.39,17-3.39,22.63,13.58,87.14-6.79,125.61c0,0-12.45,40.74-28.29,58.85,0,0-28.29,53.19-81.48,84.87-13.82,8.23-48.66,79.22-168.61,69,0,0-107.51,45.26-234.25-60,0,0-36.21-12.45-62.24-44.13s-39.61-50.92-43-61.11c0,0-47.53-35.08-66.77-72.42s-63.37-189,13.58-261.41c0,0,11.31-50.92,39.61-62.24,0,0-7.92-36.21,28.29-74.69s73.56-60,105.24-67.9S4835.85,185.46,4850.57,205.83Z"/><g class="cls-11"><path class="cls-12" d="M5045.21,211.49l207.09,135.8s79.78,258,78.08,266.5-112,295.36-112,295.36l-421,62.81s-249.53-174.84-101.85-122.22,261.41-50.92,298.75-69,23.76-71.86,13.58-107.5-95.06,1.7-137.49-45.83,42.44-122.22,50.92-149.38,100.15-39,125.61-61.11-57.71-117.12-56-146,21.5-41.31,21.5-41.31Z"/><path class="cls-13" d="M4990.89,270.9s-163-44.13-227.46,40.74,62.81,39,100.15,37.34-95.06,101.85-146,157.86-44.13,178.23,15.28,205.39,95.06,134.1,161.26,129,202-156.17,202-156.17l10.18-269.9Z"/></g><path class="cls-14" d="M4918.46,243.18s19.24,28.29,31.69,29.42,19.24,0,35.08,4.53,1.13-49.79-21.5-57.71-32.82,11.32-32.82,11.32,12.45-2.26,13.58,3.39S4918.46,243.18,4918.46,243.18Z"/><path class="cls-14" d="M4710.24,338.23s-43,1.13-62.24,49.79c0,0,19.23,47,62.24,14.71C4751,372.18,4710.24,338.23,4710.24,338.23Z"/><path class="cls-14" d="M4571.05,346.16s-24.9,26-6.79,47.53C4564.26,393.68,4576.71,393.68,4571.05,346.16Z"/><path class="cls-14" d="M4851.7,240.91s-20.37,9.05-32.82,6.79-28.29,5.66-32.82,17,31.69,5.66,36.21-7.92c3.39-10.18,24.9-14.71,43-3.39Z"/><path class="cls-14" d="M4821.14,429.9s39.61,17,44.13,9.05-26-89.4-71.29-35.08c0,0,21.5-14.71,22.63-6.79s-24.9,5.66-29.42,12.45S4812.09,426.5,4821.14,429.9Z"/><path class="cls-14" d="M4964.86,355.21s-9.05,17-21.5,13.58,7.92,52.06,28.29,63.37S5045.21,355.21,4964.86,355.21Z"/><path class="cls-14" d="M5087.08,324.65s-20.37,38.48-39.61,48.66,29.42,7.92,37.34,11.32,3.39,17,10.18,17,15.84-39.61,9.05-56.58,12.45,6.79,12.45,6.79S5117.63,324.65,5087.08,324.65Z"/><path class="cls-14" d="M5085.95,475.16c-1.72,10.29,9.05,15.84,6.79,22.63s-9.05,12.45-7.92,15.84,18.11,10.19,27.16,2.26,5.66,6.79,4.53,12.45,14.71-20.37,0-43S5087.08,468.37,5085.95,475.16Z"/><path class="cls-14" d="M4795.12,451.4c1,8.1,19.24,2.26,22.63,11.32s-5.66,57.71-39.61,10.18S4791.72,423.11,4795.12,451.4Z"/><path class="cls-14" d="M4743.06,488.74s-7.92,12.45-14.71,13.58,28.29,5.66,32.82,13.58c0,0-10.18-19.24-2.26-21.5C4758.9,494.4,4744.19,495.53,4743.06,488.74Z"/><path class="cls-14" d="M4590.29,572.48s32.82-9.05,46.4-5.66c0,0,3.39-36.21-27.16-36.21S4598.21,557.77,4590.29,572.48Z"/><path class="cls-14" d="M4926.39,570.22c-7.78,2.46,6.79,19.24,2.26,26s-11.32,2.26-17,9.05,40.74,75.82,69,29.42S4969.39,556.64,4926.39,570.22Z"/><path class="cls-14" d="M4809.83,626.8c7.3,5.47,38.47,9.05,49.79-6.79s-4.53-41.87-17-40.74-15.84-15.84-28.29-10.18S4782.67,606.43,4809.83,626.8Z"/><path class="cls-14" d="M5058.79,626.8c3.39-4.53,12.45-2.26,23.76-5.66s29.42-17,39.61-13.58-4.53,29.42-4.53,40.74-3.39-5.66-9.05-5.66-10.19,17-24.9,17S5058.79,626.8,5058.79,626.8Z"/><path class="cls-14" d="M4627.63,803.34s49.79-9.05,52.06-22.63c0,0,2.26,18.11,12.45,18.11s-7.92,39.61-23.76,39.61C4668.37,838.42,4628.76,811.26,4627.63,803.34Z"/><path class="cls-14" d="M4790.59,709.41l-35.08,4.53,1.13,6.79s28.29-4.53,35.08,0Z"/><path class="cls-14" d="M4734,755.81s19.24,4.53,23.76-9.05c0,0,10.18-3.4,17-1.13s27.16-1.13,19.24,14.71-12.45,23.76-22.63,23.76-48.66-6.79-37.34-14.71C4734,769.39,4737.4,764.86,4734,755.81Z"/><path class="cls-14" d="M4953.55,738.83s13.58,9.05,24.89,0,24.9,30.55,15.84,41.87,14.71,22.63-9.05,31.69-24.89-7.92-24.89-7.92-39.61-9.05-24.9-33.95S4954.68,751.28,4953.55,738.83Z"/><path class="cls-2" d="M2683.39,311.9q-46.17-47.94-120.34-59l.06,0-.8-.08a313.73,313.73,0,0,0-40.12-3.17C2420.39,244.11,2313.7,260.47,2262,374q-21.12-50.27-63.21-81.78-48.27-36.07-117.56-41.66c-171.61-24.54-239.47,62.29-260.76,100.93v-99.7h-77.4V857.14h77.4v-298q0-106.27,55.45-171t152.48-67q82,0,128.8,47.94T2204,503.66V857.14h78.55v-298q0-106.27,54.87-171t151.91-67q82,0,128.8,47.94t46.78,134.58V857.14h78.55v-372Q2743.45,374.28,2683.39,311.9Z"/><path class="cls-2" d="M3935.53,347.78s70.47-128.54,288.19-95.5l-216,90.64-67.55,90.39Z"/></g></g></svg>